<?xml version="1.0" encoding="UTF-8" standalone="no"?>
<svg xmlns="http://www.w3.org/2000/svg"
     contentScriptType="application/ecmascript" contentStyleType="text/css" height="359px"
     preserveAspectRatio="none" style="width:401px;height:359px;" version="1.1"
     viewBox="0 0 401 359" width="401px" zoomAndPan="magnify">
    <defs>
        <filter height="300%" id="f6hfkrq" width="300%" x="-1" y="-1">
            <feGaussianBlur result="blurOut" stdDeviation="2.0"/>
            <feColorMatrix in="blurOut" result="blurOut2" type="matrix"
                           values="0 0 0 0 0 0 0 0 0 0 0 0 0 0 0 0 0 0 .4 0"/>
            <feOffset dx="4.0" dy="4.0" in="blurOut2" result="blurOut3"/>
            <feBlend in="SourceGraphic" in2="blurOut3" mode="normal"/>
        </filter>
    </defs>
    <g><!--cluster definition-->
        <polygon fill="#FFFFFF" filter="url(#f6hfkrq)"
                 points="40,24,146,24,153,46.4883,184,46.4883,184,136,40,136,40,24"
                 style="stroke: #000000; stroke-width: 2.0;"/>
        <line style="stroke: #000000; stroke-width: 2.0;" x1="40" x2="153" y1="46.4883"
              y2="46.4883"/>
        <text fill="#000000" font-family="sans-serif" font-size="14" font-weight="bold"
              lengthAdjust="spacingAndGlyphs" textLength="100" x="44" y="39.5352">definition file
        </text><!--cluster blocks-->
        <polygon fill="#FFFFFF" filter="url(#f6hfkrq)"
                 points="208,35.5,321,35.5,328,57.9883,394,57.9883,394,124.5,208,124.5,208,35.5"
                 style="stroke: #000000; stroke-width: 2.0;"/>
        <line style="stroke: #000000; stroke-width: 2.0;" x1="208" x2="328" y1="57.9883"
              y2="57.9883"/>
        <text fill="#000000" font-family="sans-serif" font-size="14" font-weight="bold"
              lengthAdjust="spacingAndGlyphs" textLength="107" x="212" y="51.0352">level block file
        </text><!--cluster output-->
        <polygon fill="#FFFFFF" filter="url(#f6hfkrq)"
                 points="22,251,105,251,112,273.4883,236,273.4883,236,352,22,352,22,251"
                 style="stroke: #000000; stroke-width: 2.0;"/>
        <line style="stroke: #000000; stroke-width: 2.0;" x1="22" x2="112" y1="273.4883"
              y2="273.4883"/>
        <text fill="#000000" font-family="sans-serif" font-size="14" font-weight="bold"
              lengthAdjust="spacingAndGlyphs" textLength="77" x="26" y="266.5352">output file
        </text>
        <rect fill="#FEFECE" filter="url(#f6hfkrq)" height="61.4648"
              style="stroke: #A80036; stroke-width: 1.5;" width="111" x="56.5" y="59"/>
        <text fill="#000000" font-family="sans-serif" font-size="12" lengthAdjust="spacingAndGlyphs"
              textLength="28" x="98" y="72.6016">.json
        </text>
        <line style="stroke: #A80036; stroke-width: 1.5;" x1="57.5" x2="166.5" y1="77.1328"
              y2="77.1328"/>
        <rect fill="none" height="6" style="stroke: #C82930; stroke-width: 1.0;" width="6" x="64.5"
              y="85.5215"/>
        <text fill="#000000" font-family="sans-serif" font-size="10" lengthAdjust="spacingAndGlyphs"
              textLength="85" x="76.5" y="90.8008">texture atlas info
        </text>
        <rect fill="none" height="6" style="stroke: #C82930; stroke-width: 1.0;" width="6" x="64.5"
              y="97.2988"/>
        <text fill="#000000" font-family="sans-serif" font-size="10" lengthAdjust="spacingAndGlyphs"
              textLength="74" x="76.5" y="102.5781">level block info
        </text>
        <rect fill="none" height="6" style="stroke: #C82930; stroke-width: 1.0;" width="6" x="64.5"
              y="109.0762"/>
        <text fill="#000000" font-family="sans-serif" font-size="10" lengthAdjust="spacingAndGlyphs"
              textLength="48" x="76.5" y="114.3555">color map
        </text>
        <rect fill="#FEFECE" filter="url(#f6hfkrq)" height="37.9102"
              style="stroke: #A80036; stroke-width: 1.5;" width="154" x="224" y="70.5"/>
        <text fill="#000000" font-family="sans-serif" font-size="12" lengthAdjust="spacingAndGlyphs"
              textLength="26" x="288" y="84.1016">.png
        </text>
        <line style="stroke: #A80036; stroke-width: 1.5;" x1="225" x2="377" y1="88.6328"
              y2="88.6328"/>
        <rect fill="none" height="6" style="stroke: #C82930; stroke-width: 1.0;" width="6" x="232"
              y="97.0215"/>
        <text fill="#000000" font-family="sans-serif" font-size="10" lengthAdjust="spacingAndGlyphs"
              textLength="128" x="244" y="102.3008">color-coded level stucture
        </text>
        <rect fill="#FEFECE" filter="url(#f6hfkrq)" height="49.6875"
              style="stroke: #A80036; stroke-width: 1.5;" width="182" x="38" y="286"/>
        <text fill="#000000" font-family="sans-serif" font-size="12" lengthAdjust="spacingAndGlyphs"
              textLength="28" x="115" y="299.6016">.json
        </text>
        <line style="stroke: #A80036; stroke-width: 1.5;" x1="39" x2="219" y1="304.1328"
              y2="304.1328"/>
        <rect fill="none" height="6" style="stroke: #C82930; stroke-width: 1.0;" width="6" x="46"
              y="312.5215"/>
        <text fill="#000000" font-family="sans-serif" font-size="10" lengthAdjust="spacingAndGlyphs"
              textLength="125" x="58" y="317.8008">float[] vertices (geometry)
        </text>
        <rect fill="none" height="6" style="stroke: #C82930; stroke-width: 1.0;" width="6" x="46"
              y="324.2988"/>
        <text fill="#000000" font-family="sans-serif" font-size="10" lengthAdjust="spacingAndGlyphs"
              textLength="156" x="58" y="329.5781">float[] UVs (texture coordinates)
        </text><!--entity generator-->
        <polygon fill="#FEFECE" filter="url(#f6hfkrq)"
                 points="55.5,190,65.5,180,202.5,180,202.5,216.4883,192.5,226.4883,55.5,226.4883,55.5,190"
                 style="stroke: #000000; stroke-width: 1.5;"/>
        <line style="stroke: #000000; stroke-width: 1.5;" x1="192.5" x2="201.5" y1="190" y2="181"/>
        <line style="stroke: #000000; stroke-width: 1.5;" x1="55.5" x2="192.5" y1="190" y2="190"/>
        <line style="stroke: #000000; stroke-width: 1.5;" x1="192.5" x2="192.5" y1="190"
              y2="226.4883"/>
        <text fill="#000000" font-family="sans-serif" font-size="14" lengthAdjust="spacingAndGlyphs"
              textLength="107" x="70.5" y="213.5352">level-generator
        </text>
        <path d="M116.51,120.09 C119.1,137.04 122.32,158.17 124.84,174.73 " fill="none"
              style="stroke: #A80036; stroke-width: 1.0;"/>
        <polygon fill="#A80036"
                 points="125.6,179.71,128.1912,170.2081,124.8429,174.7676,120.2834,171.4194,125.6,179.71"
                 style="stroke: #A80036; stroke-width: 1.0;"/>
        <path d="M272.98,108.66 C244.29,127.27 199.47,156.32 167.46,177.07 " fill="none"
              style="stroke: #A80036; stroke-width: 1.0;"/>
        <polygon fill="#A80036"
                 points="163.23,179.81,172.96,178.2845,167.4294,177.0961,168.6178,171.5655,163.23,179.81"
                 style="stroke: #A80036; stroke-width: 1.0;"/>
        <path d="M129,226.22 C129,242.07 129,263.53 129,280.76 " fill="none"
              style="stroke: #A80036; stroke-width: 1.0;"/>
        <polygon fill="#A80036" points="129,285.96,133,276.96,129,280.96,125,276.96,129,285.96"
                 style="stroke: #A80036; stroke-width: 1.0;"/>
    </g>
</svg>