<?xml version="1.0" encoding="UTF-8" standalone="no"?><svg xmlns="http://www.w3.org/2000/svg" xmlns:xlink="http://www.w3.org/1999/xlink" contentScriptType="application/ecmascript" contentStyleType="text/css" height="485px" preserveAspectRatio="none" style="width:778px;height:485px;" version="1.1" viewBox="0 0 778 485" width="778px" zoomAndPan="magnify"><defs><filter height="300%" id="fsglxxo" width="300%" x="-1" y="-1"><feGaussianBlur result="blurOut" stdDeviation="2.0"/><feColorMatrix in="blurOut" result="blurOut2" type="matrix" values="0 0 0 0 0 0 0 0 0 0 0 0 0 0 0 0 0 0 .4 0"/><feOffset dx="4.0" dy="4.0" in="blurOut2" result="blurOut3"/><feBlend in="SourceGraphic" in2="blurOut3" mode="normal"/></filter></defs><g><rect fill="#FEFECE" filter="url(#fsglxxo)" height="34.1328" style="stroke: #A80036; stroke-width: 1.5;" width="125" x="6" y="21.5"/><text fill="#000000" font-family="sans-serif" font-size="12" lengthAdjust="spacingAndGlyphs" textLength="111" x="13" y="35.1016">TextureAtlas (.png)</text><line style="stroke: #A80036; stroke-width: 1.5;" x1="7" x2="130" y1="39.6328" y2="39.6328"/><rect fill="#FEFECE" filter="url(#fsglxxo)" height="34.1328" style="stroke: #A80036; stroke-width: 1.5;" width="172" x="166.5" y="21.5"/><text fill="#000000" font-family="sans-serif" font-size="12" lengthAdjust="spacingAndGlyphs" textLength="158" x="173.5" y="35.1016">Level as Color Blocks (.png)</text><line style="stroke: #A80036; stroke-width: 1.5;" x1="167.5" x2="337.5" y1="39.6328" y2="39.6328"/><rect fill="#FEFECE" filter="url(#fsglxxo)" height="61.4648" style="stroke: #A80036; stroke-width: 1.5;" width="227" x="374" y="8"/><text fill="#000000" font-family="sans-serif" font-size="12" lengthAdjust="spacingAndGlyphs" textLength="213" x="381" y="21.6016">BlockColor2TextureAtlasIndex (.json)</text><line style="stroke: #A80036; stroke-width: 1.5;" x1="375" x2="600" y1="26.1328" y2="26.1328"/><text fill="#000000" font-family="sans-serif" font-size="10" lengthAdjust="spacingAndGlyphs" textLength="60" x="380" y="39.8008">0011ff =&gt; 0</text><text fill="#000000" font-family="sans-serif" font-size="10" lengthAdjust="spacingAndGlyphs" textLength="64" x="380" y="51.5781">44dd11 =&gt; 1</text><text fill="#000000" font-family="sans-serif" font-size="10" lengthAdjust="spacingAndGlyphs" textLength="9" x="380" y="63.3555">...</text><rect fill="#FEFECE" filter="url(#fsglxxo)" height="37.9102" style="stroke: #A80036; stroke-width: 1.5;" width="133" x="636" y="19.5"/><text fill="#000000" font-family="sans-serif" font-size="12" lengthAdjust="spacingAndGlyphs" textLength="29" x="688" y="33.1016">Input</text><line style="stroke: #A80036; stroke-width: 1.5;" x1="637" x2="768" y1="37.6328" y2="37.6328"/><text fill="#000000" font-family="sans-serif" font-size="10" lengthAdjust="spacingAndGlyphs" textLength="121" x="642" y="51.3008">Texture Size (e.g. 16x16)</text><rect fill="#F0F8FF" filter="url(#fsglxxo)" height="37.9102" style="stroke: #A80036; stroke-width: 1.5;" width="101" x="319" y="129"/><text fill="#000000" font-family="sans-serif" font-size="12" lengthAdjust="spacingAndGlyphs" textLength="87" x="326" y="142.6016">LevelGenerator</text><line style="stroke: #A80036; stroke-width: 1.5;" x1="320" x2="419" y1="147.1328" y2="147.1328"/><text fill="#000000" font-family="sans-serif" font-size="10" lengthAdjust="spacingAndGlyphs" textLength="71" x="325" y="160.8008">own small App</text><rect fill="#FEFECE" filter="url(#fsglxxo)" height="34.1328" style="stroke: #A80036; stroke-width: 1.5;" width="141" x="299" y="227"/><text fill="#000000" font-family="sans-serif" font-size="12" lengthAdjust="spacingAndGlyphs" textLength="127" x="306" y="240.6016">Level Definition (.json)</text><line style="stroke: #A80036; stroke-width: 1.5;" x1="300" x2="439" y1="245.1328" y2="245.1328"/><rect fill="#F0F8FF" filter="url(#fsglxxo)" height="61.4648" style="stroke: #A80036; stroke-width: 1.5;" width="175" x="282" y="321"/><text fill="#000000" font-family="sans-serif" font-size="12" lengthAdjust="spacingAndGlyphs" textLength="161" x="289" y="334.6016">LevelLoader (tiles-operator)</text><line style="stroke: #A80036; stroke-width: 1.5;" x1="283" x2="456" y1="339.1328" y2="339.1328"/><text fill="#000000" font-family="sans-serif" font-size="10" lengthAdjust="spacingAndGlyphs" textLength="95" x="288" y="352.8008">VBO geometry data</text><text fill="#000000" font-family="sans-serif" font-size="10" lengthAdjust="spacingAndGlyphs" textLength="85" x="288" y="364.5781">VBO texture data</text><text fill="#000000" font-family="sans-serif" font-size="10" lengthAdjust="spacingAndGlyphs" textLength="22" x="288" y="376.3555">VAO</text><rect fill="#F0F8FF" filter="url(#fsglxxo)" height="34.1328" style="stroke: #A80036; stroke-width: 1.5;" width="68" x="335.5" y="442"/><text fill="#000000" font-family="sans-serif" font-size="12" lengthAdjust="spacingAndGlyphs" textLength="54" x="342.5" y="455.6016">Renderer</text><line style="stroke: #A80036; stroke-width: 1.5;" x1="336.5" x2="402.5" y1="460.1328" y2="460.1328"/><path d="M111.64,55.53 C123.57,59.93 136.53,64.68 148.5,69 C204.81,89.32 269.4,112.05 314.15,127.7 " fill="none" style="stroke: #A80036; stroke-width: 1.0;"/><polygon fill="#A80036" points="318.96,129.39,311.7894,122.6385,314.2414,127.7363,309.1436,130.1883,318.96,129.39" style="stroke: #A80036; stroke-width: 1.0;"/><path d="M270.02,55.59 C290.26,74.2 323.68,104.9 346.13,125.52 " fill="none" style="stroke: #A80036; stroke-width: 1.0;"/><polygon fill="#A80036" points="349.91,129,345.988,119.9657,346.2278,125.6175,340.576,125.8573,349.91,129" style="stroke: #A80036; stroke-width: 1.0;"/><path d="M454.94,69.16 C435.41,86.95 411,109.19 393.28,125.34 " fill="none" style="stroke: #A80036; stroke-width: 1.0;"/><polygon fill="#A80036" points="389.38,128.89,398.7331,125.8047,393.0829,125.5302,393.3574,119.88,389.38,128.89" style="stroke: #A80036; stroke-width: 1.0;"/><path d="M651.96,57.56 C640.95,61.41 629.35,65.39 618.5,69 C552.28,90.99 475.6,114.76 425.03,130.2 " fill="none" style="stroke: #A80036; stroke-width: 1.0;"/><polygon fill="#A80036" points="420.21,131.67,429.9859,132.8669,424.992,130.2096,427.6493,125.2158,420.21,131.67" style="stroke: #A80036; stroke-width: 1.0;"/><path d="M369.5,167.12 C369.5,182.65 369.5,205.05 369.5,221.49 " fill="none" style="stroke: #A80036; stroke-width: 1.0;"/><polygon fill="#A80036" points="369.5,226.81,373.5,217.81,369.5,221.81,365.5,217.81,369.5,226.81" style="stroke: #A80036; stroke-width: 1.0;"/><path d="M369.5,261.02 C369.5,275.46 369.5,297.18 369.5,315.61 " fill="none" style="stroke: #A80036; stroke-width: 1.0;"/><polygon fill="#A80036" points="369.5,320.71,373.5,311.71,369.5,315.71,365.5,311.71,369.5,320.71" style="stroke: #A80036; stroke-width: 1.0;"/><path d="M369.5,382.17 C369.5,399.58 369.5,421.17 369.5,436.86 " fill="none" style="stroke: #A80036; stroke-width: 1.0;"/><polygon fill="#A80036" points="369.5,441.94,373.5,432.94,369.5,436.94,365.5,432.94,369.5,441.94" style="stroke: #A80036; stroke-width: 1.0;"/></g></svg>